<svg xmlns="http://www.w3.org/2000/svg" xmlns:xlink="http://www.w3.org/1999/xlink" version="1.1" x="0px" y="0px" viewBox="0 0 100 100" style="enable-background:new 0 0 100 100; fill: #263238; opacity:0.9;" xml:space="preserve">
<path d="M50,12.3c-14.1,0-25.5,11.4-25.5,25.6c0,3.7,0.8,7.1,2.1,10.3l22,42.7c0.6,1.2,2.2,1.2,2.8,0l22-42.7  c1.4-3.1,2.1-6.6,2.1-10.3C75.5,23.7,64.1,12.3,50,12.3z M50,58.4c-11.4,0-20.7-9.3-20.7-20.7C29.3,26.3,38.6,17,50,17  s20.7,9.3,20.7,20.7C70.7,49.1,61.4,58.4,50,58.4z"/>
<!-- <path d="M62.4,38.3l-0.6-13.5h0c0-0.8-0.7-1.5-1.5-1.5h-6.1v-0.4c0-0.6-0.5-1-1-1h-6.4c-0.6,0-1,0.5-1,1v0.4h-6.1  c-0.8,0-1.5,0.7-1.5,1.5l-0.6,13.5c0,0.6,0,1.5,0,2.1l0.4,3.8c0.1,0.8,0.8,1.5,1.6,1.5h20.8c0.8,0,1.5-0.7,1.6-1.4l0.4-3.8  C62.4,39.8,62.4,38.9,62.4,38.3z M40.4,25.9c0-0.3,0.4-0.5,0.8-0.5h17.6c0.4,0,0.8,0.2,0.8,0.5l0.2,7.3c0,0.3-0.4,0.5-0.8,0.5H41  c-0.5,0-0.8-0.2-0.8-0.5L40.4,25.9z M41.3,39c-0.8,0-1.4-0.6-1.4-1.4s0.6-1.4,1.4-1.4s1.4,0.6,1.4,1.4S42,39,41.3,39z M58.7,39  c-0.8,0-1.4-0.6-1.4-1.4s0.6-1.4,1.4-1.4s1.4,0.6,1.4,1.4S59.5,39,58.7,39z"/> -->
<!-- <polygon points="57.9,48.1 57,47.1 43,47.1 42.1,48.1 41.1,49 58.9,49 "/>
<polygon points="61.3,51.4 60.3,50.5 39.7,50.5 38.7,51.4 37.8,52.4 62.2,52.4 "/> -->
</svg>
